# Created by Metasequoia

mtllib sphere36.mtl

v 0.000000 1.000000 0.000000
v 0.000000 0.866025 0.500000
v -0.433013 0.866025 0.250000
v -0.433013 0.866025 -0.250000
v 0.000000 0.866025 -0.500000
v 0.433013 0.866025 -0.250000
v 0.433013 0.866025 0.250000
v 0.000000 0.500000 0.866025
v -0.750000 0.500000 0.433013
v -0.750000 0.500000 -0.433013
v 0.000000 0.500000 -0.866025
v 0.750000 0.500000 -0.433013
v 0.750000 0.500000 0.433013
v 0.000000 -0.000000 1.000000
v -0.866025 -0.000000 0.500000
v -0.866025 -0.000000 -0.500000
v 0.000000 -0.000000 -1.000000
v 0.866025 -0.000000 -0.500000
v 0.866025 -0.000000 0.500000
v 0.000000 -0.500000 0.866025
v -0.750000 -0.500000 0.433013
v -0.750000 -0.500000 -0.433013
v 0.000000 -0.500000 -0.866025
v 0.750000 -0.500000 -0.433013
v 0.750000 -0.500000 0.433013
v 0.000000 -0.866025 0.500000
v -0.433013 -0.866025 0.250000
v -0.433013 -0.866025 -0.250000
v 0.000000 -0.866025 -0.500000
v 0.433013 -0.866025 -0.250000
v 0.433013 -0.866025 0.250000
v 0.000000 -1.000000 0.000000
# 32 vertices

vt 0.08333 0.00000
vt 0.16667 0.16667
vt 0.00000 0.16667
vt 0.25000 0.00000
vt 0.33333 0.16667
vt 0.41667 0.00000
vt 0.50000 0.16667
vt 0.58333 0.00000
vt 0.66667 0.16667
vt 0.75000 0.00000
vt 0.83333 0.16667
vt 0.91667 0.00000
vt 1.00000 0.16667
vt 0.00000 0.83333
vt 0.16667 0.83333
vt 0.08333 1.00000
vt 0.33333 0.83333
vt 0.25000 1.00000
vt 0.50000 0.83333
vt 0.41667 1.00000
vt 0.66667 0.83333
vt 0.58333 1.00000
vt 0.83333 0.83333
vt 0.75000 1.00000
vt 1.00000 0.83333
vt 0.91667 1.00000
vt 0.16667 0.33333
vt 0.00000 0.33333
vt 0.33333 0.33333
vt 0.50000 0.33333
vt 0.66667 0.33333
vt 0.83333 0.33333
vt 1.00000 0.33333
vt 0.16667 0.50000
vt 0.00000 0.50000
vt 0.33333 0.50000
vt 0.50000 0.50000
vt 0.66667 0.50000
vt 0.83333 0.50000
vt 1.00000 0.50000
vt 0.16667 0.66667
vt 0.00000 0.66667
vt 0.33333 0.66667
vt 0.50000 0.66667
vt 0.66667 0.66667
vt 0.83333 0.66667
vt 1.00000 0.66667
vt 0.16667 0.83333
vt 0.00000 0.83333
vt 0.33333 0.83333
vt 0.50000 0.83333
vt 0.66667 0.83333
vt 0.83333 0.83333
vt 1.00000 0.83333
# 54 texture vertices

vn 0.00000 1.00000 0.00000
vn 0.08192 0.83982 0.53665
vn -0.42379 0.83982 0.33927
vn -0.50572 0.83982 -0.19738
vn -0.08192 0.83982 -0.53665
vn 0.42379 0.83982 -0.33927
vn 0.50572 0.83982 0.19738
vn 0.02092 0.50664 0.86190
vn -0.73597 0.50664 0.44907
vn -0.75689 0.50664 -0.41284
vn -0.02092 0.50664 -0.86190
vn 0.73597 0.50664 -0.44907
vn 0.75689 0.50664 0.41284
vn 0.00000 -0.00000 1.00000
vn -0.86603 -0.00000 0.50000
vn -0.86603 -0.00000 -0.50000
vn 0.00000 -0.00000 -1.00000
vn 0.86603 -0.00000 -0.50000
vn 0.86603 -0.00000 0.50000
vn -0.07941 -0.53748 0.83953
vn -0.82026 -0.45675 0.34433
vn -0.73597 -0.50664 -0.44907
vn 0.02092 -0.50664 -0.86190
vn 0.75689 -0.50664 -0.41284
vn 0.73597 -0.50664 0.44907
vn 0.00000 -0.87041 0.49232
vn -0.49241 -0.82262 0.28429
vn -0.42379 -0.83982 -0.33927
vn 0.08192 -0.83982 -0.53665
vn 0.50572 -0.83982 -0.19738
vn 0.42379 -0.83982 0.33927
vn 0.00000 -1.00000 -0.00000
# 32 normal vertices

usemtl default
f 1/1/1 3/2/3 2/3/2
f 1/4/1 4/5/4 3/2/3
f 1/6/1 5/7/5 4/5/4
f 1/8/1 6/9/6 5/7/5
f 1/10/1 7/11/7 6/9/6
f 1/12/1 2/13/2 7/11/7
f 26/14/26 27/15/27 32/16/32
f 27/15/27 28/17/28 32/18/32
f 28/17/28 29/19/29 32/20/32
f 29/19/29 30/21/30 32/22/32
f 30/21/30 31/23/31 32/24/32
f 31/23/31 26/25/26 32/26/32
f 3/2/3 9/27/9 8/28/8
f 3/2/3 8/28/8 2/3/2
f 4/5/4 10/29/10 9/27/9
f 4/5/4 9/27/9 3/2/3
f 5/7/5 11/30/11 10/29/10
f 5/7/5 10/29/10 4/5/4
f 6/9/6 12/31/12 11/30/11
f 6/9/6 11/30/11 5/7/5
f 7/11/7 13/32/13 12/31/12
f 7/11/7 12/31/12 6/9/6
f 2/13/2 8/33/8 13/32/13
f 2/13/2 13/32/13 7/11/7
f 9/27/9 15/34/15 14/35/14
f 9/27/9 14/35/14 8/28/8
f 10/29/10 16/36/16 15/34/15
f 10/29/10 15/34/15 9/27/9
f 11/30/11 17/37/17 16/36/16
f 11/30/11 16/36/16 10/29/10
f 12/31/12 18/38/18 17/37/17
f 12/31/12 17/37/17 11/30/11
f 13/32/13 19/39/19 18/38/18
f 13/32/13 18/38/18 12/31/12
f 8/33/8 14/40/14 19/39/19
f 8/33/8 19/39/19 13/32/13
f 15/34/15 21/41/21 20/42/20
f 15/34/15 20/42/20 14/35/14
f 16/36/16 22/43/22 21/41/21
f 16/36/16 21/41/21 15/34/15
f 17/37/17 23/44/23 22/43/22
f 17/37/17 22/43/22 16/36/16
f 18/38/18 24/45/24 23/44/23
f 18/38/18 23/44/23 17/37/17
f 19/39/19 25/46/25 24/45/24
f 19/39/19 24/45/24 18/38/18
f 14/40/14 20/47/20 25/46/25
f 14/40/14 25/46/25 19/39/19
f 20/42/20 21/41/21 27/48/27
f 20/42/20 27/48/27 26/49/26
f 22/43/22 28/50/28 27/48/27
f 22/43/22 27/48/27 21/41/21
f 23/44/23 29/51/29 28/50/28
f 23/44/23 28/50/28 22/43/22
f 24/45/24 30/52/30 29/51/29
f 24/45/24 29/51/29 23/44/23
f 25/46/25 31/53/31 30/52/30
f 25/46/25 30/52/30 24/45/24
f 20/47/20 26/54/26 31/53/31
f 20/47/20 31/53/31 25/46/25
# 60 elements

