# Created by Metasequoia

mtllib sphere64.mtl

v 0.000000 1.000000 0.000000
v 0.000000 0.923880 0.382683
v -0.270598 0.923880 0.270598
v -0.382683 0.923880 -0.000000
v -0.270598 0.923880 -0.270598
v 0.000000 0.923880 -0.382683
v 0.270598 0.923880 -0.270598
v 0.382683 0.923880 0.000000
v 0.270598 0.923880 0.270598
v 0.000000 0.707107 0.707107
v -0.500000 0.707107 0.500000
v -0.707107 0.707107 -0.000000
v -0.500000 0.707107 -0.500000
v 0.000000 0.707107 -0.707107
v 0.500000 0.707107 -0.500000
v 0.707107 0.707107 0.000000
v 0.500000 0.707107 0.500000
v 0.000000 0.382683 0.923880
v -0.653281 0.382683 0.653281
v -0.923880 0.382683 -0.000000
v -0.653281 0.382683 -0.653281
v 0.000000 0.382683 -0.923880
v 0.653282 0.382683 -0.653281
v 0.923880 0.382683 0.000000
v 0.653282 0.382683 0.653281
v 0.000000 -0.000000 1.000000
v -0.707107 -0.000000 0.707107
v -1.000000 -0.000000 -0.000000
v -0.707107 -0.000000 -0.707107
v 0.000000 -0.000000 -1.000000
v 0.707107 -0.000000 -0.707107
v 1.000000 -0.000000 0.000000
v 0.707107 -0.000000 0.707107
v 0.000000 -0.382684 0.923880
v -0.653281 -0.382684 0.653281
v -0.923880 -0.382684 -0.000000
v -0.653281 -0.382684 -0.653281
v 0.000000 -0.382684 -0.923880
v 0.653282 -0.382684 -0.653281
v 0.923880 -0.382684 0.000000
v 0.653282 -0.382684 0.653281
v 0.000000 -0.707107 0.707107
v -0.500000 -0.707107 0.500000
v -0.707107 -0.707107 -0.000000
v -0.500000 -0.707107 -0.500000
v 0.000000 -0.707107 -0.707107
v 0.500000 -0.707107 -0.500000
v 0.707107 -0.707107 0.000000
v 0.500000 -0.707107 0.500000
v 0.000000 -0.923880 0.382683
v -0.270598 -0.923880 0.270598
v -0.382683 -0.923880 -0.000000
v -0.270598 -0.923880 -0.270598
v 0.000000 -0.923880 -0.382683
v 0.270598 -0.923880 -0.270598
v 0.382683 -0.923880 0.000000
v 0.270598 -0.923880 0.270598
v 0.000000 -1.000000 0.000000
# 58 vertices

vt 0.06250 0.00000
vt 0.12500 0.12500
vt 0.00000 0.12500
vt 0.18750 0.00000
vt 0.25000 0.12500
vt 0.31250 0.00000
vt 0.37500 0.12500
vt 0.43750 0.00000
vt 0.50000 0.12500
vt 0.56250 0.00000
vt 0.62500 0.12500
vt 0.68750 0.00000
vt 0.75000 0.12500
vt 0.81250 0.00000
vt 0.87500 0.12500
vt 0.93750 0.00000
vt 1.00000 0.12500
vt 0.00000 0.87500
vt 0.12500 0.87500
vt 0.06250 1.00000
vt 0.25000 0.87500
vt 0.18750 1.00000
vt 0.37500 0.87500
vt 0.31250 1.00000
vt 0.50000 0.87500
vt 0.43750 1.00000
vt 0.62500 0.87500
vt 0.56250 1.00000
vt 0.75000 0.87500
vt 0.68750 1.00000
vt 0.87500 0.87500
vt 0.81250 1.00000
vt 1.00000 0.87500
vt 0.93750 1.00000
vt 0.12500 0.25000
vt 0.00000 0.25000
vt 0.25000 0.25000
vt 0.37500 0.25000
vt 0.50000 0.25000
vt 0.62500 0.25000
vt 0.75000 0.25000
vt 0.87500 0.25000
vt 1.00000 0.25000
vt 0.12500 0.37500
vt 0.00000 0.37500
vt 0.25000 0.37500
vt 0.37500 0.37500
vt 0.50000 0.37500
vt 0.62500 0.37500
vt 0.75000 0.37500
vt 0.87500 0.37500
vt 1.00000 0.37500
vt 0.12500 0.50000
vt 0.00000 0.50000
vt 0.25000 0.50000
vt 0.37500 0.50000
vt 0.50000 0.50000
vt 0.62500 0.50000
vt 0.75000 0.50000
vt 0.87500 0.50000
vt 1.00000 0.50000
vt 0.12500 0.62500
vt 0.00000 0.62500
vt 0.25000 0.62500
vt 0.37500 0.62500
vt 0.50000 0.62500
vt 0.62500 0.62500
vt 0.75000 0.62500
vt 0.87500 0.62500
vt 1.00000 0.62500
vt 0.12500 0.75000
vt 0.00000 0.75000
vt 0.25000 0.75000
vt 0.37500 0.75000
vt 0.50000 0.75000
vt 0.62500 0.75000
vt 0.75000 0.75000
vt 0.87500 0.75000
vt 1.00000 0.75000
# 79 texture vertices

vn 0.00000 1.00000 0.00000
vn 0.04642 0.90786 0.41670
vn -0.26183 0.90786 0.32747
vn -0.41670 0.90786 0.04642
vn -0.32747 0.90786 -0.26183
vn -0.04642 0.90786 -0.41670
vn 0.26183 0.90786 -0.32747
vn 0.41670 0.90786 -0.04642
vn 0.32747 0.90786 0.26183
vn 0.01794 0.70912 0.70486
vn -0.48573 0.70912 0.51110
vn -0.70486 0.70912 0.01794
vn -0.51110 0.70912 -0.48573
vn -0.01794 0.70912 -0.70486
vn 0.48573 0.70912 -0.51110
vn 0.70486 0.70912 -0.01794
vn 0.51110 0.70912 0.48573
vn 0.00921 0.38453 0.92306
vn -0.64619 0.38453 0.65922
vn -0.92306 0.38453 0.00921
vn -0.65922 0.38453 -0.64619
vn -0.00921 0.38453 -0.92306
vn 0.64619 0.38453 -0.65922
vn 0.93247 0.35768 0.05067
vn 0.58994 0.41981 0.68973
vn 0.00000 0.00000 1.00000
vn -0.70711 0.00000 0.70711
vn -1.00000 0.00000 -0.00000
vn -0.70711 -0.00000 -0.70711
vn 0.00000 0.00000 -1.00000
vn 0.70711 0.00000 -0.70711
vn 0.99580 -0.03962 -0.08250
vn 0.74734 0.02836 0.66384
vn -0.00921 -0.38453 0.92306
vn -0.65922 -0.38453 0.64619
vn -0.92306 -0.38453 -0.00921
vn -0.64619 -0.38453 -0.65922
vn 0.00921 -0.38453 -0.92306
vn 0.65922 -0.38453 -0.64619
vn 0.92306 -0.38453 0.00921
vn 0.64619 -0.38453 0.65922
vn -0.01794 -0.70912 0.70486
vn -0.51110 -0.70912 0.48573
vn -0.70486 -0.70912 -0.01794
vn -0.48573 -0.70912 -0.51110
vn 0.01794 -0.70912 -0.70486
vn 0.51110 -0.70912 -0.48573
vn 0.70486 -0.70912 0.01794
vn 0.48573 -0.70912 0.51110
vn -0.04642 -0.90786 0.41670
vn -0.32747 -0.90786 0.26183
vn -0.41670 -0.90786 -0.04642
vn -0.26183 -0.90786 -0.32747
vn 0.04642 -0.90786 -0.41670
vn 0.32747 -0.90786 -0.26183
vn 0.41670 -0.90786 0.04642
vn 0.26183 -0.90786 0.32747
vn -0.00000 -1.00000 0.00000
# 58 normal vertices

usemtl default
f 1/1/1 3/2/3 2/3/2
f 1/4/1 4/5/4 3/2/3
f 1/6/1 5/7/5 4/5/4
f 1/8/1 6/9/6 5/7/5
f 1/10/1 7/11/7 6/9/6
f 1/12/1 8/13/8 7/11/7
f 1/14/1 9/15/9 8/13/8
f 1/16/1 2/17/2 9/15/9
f 50/18/50 51/19/51 58/20/58
f 51/19/51 52/21/52 58/22/58
f 52/21/52 53/23/53 58/24/58
f 53/23/53 54/25/54 58/26/58
f 54/25/54 55/27/55 58/28/58
f 55/27/55 56/29/56 58/30/58
f 56/29/56 57/31/57 58/32/58
f 57/31/57 50/33/50 58/34/58
f 3/2/3 11/35/11 10/36/10
f 3/2/3 10/36/10 2/3/2
f 4/5/4 12/37/12 11/35/11
f 4/5/4 11/35/11 3/2/3
f 5/7/5 13/38/13 12/37/12
f 5/7/5 12/37/12 4/5/4
f 6/9/6 14/39/14 13/38/13
f 6/9/6 13/38/13 5/7/5
f 7/11/7 15/40/15 14/39/14
f 7/11/7 14/39/14 6/9/6
f 8/13/8 16/41/16 15/40/15
f 8/13/8 15/40/15 7/11/7
f 9/15/9 17/42/17 16/41/16
f 9/15/9 16/41/16 8/13/8
f 2/17/2 10/43/10 17/42/17
f 2/17/2 17/42/17 9/15/9
f 11/35/11 19/44/19 18/45/18
f 11/35/11 18/45/18 10/36/10
f 12/37/12 20/46/20 19/44/19
f 12/37/12 19/44/19 11/35/11
f 13/38/13 21/47/21 20/46/20
f 13/38/13 20/46/20 12/37/12
f 14/39/14 22/48/22 21/47/21
f 14/39/14 21/47/21 13/38/13
f 15/40/15 23/49/23 22/48/22
f 15/40/15 22/48/22 14/39/14
f 16/41/16 24/50/24 23/49/23
f 16/41/16 23/49/23 15/40/15
f 17/42/17 25/51/25 24/50/24
f 17/42/17 24/50/24 16/41/16
f 10/43/10 18/52/18 25/51/25
f 10/43/10 25/51/25 17/42/17
f 19/44/19 27/53/27 26/54/26
f 19/44/19 26/54/26 18/45/18
f 20/46/20 28/55/28 27/53/27
f 20/46/20 27/53/27 19/44/19
f 21/47/21 29/56/29 28/55/28
f 21/47/21 28/55/28 20/46/20
f 22/48/22 30/57/30 29/56/29
f 22/48/22 29/56/29 21/47/21
f 23/49/23 31/58/31 30/57/30
f 23/49/23 30/57/30 22/48/22
f 24/50/24 32/59/32 31/58/31
f 24/50/24 31/58/31 23/49/23
f 24/50/24 25/51/25 33/60/33
f 24/50/24 33/60/33 32/59/32
f 18/52/18 26/61/26 33/60/33
f 18/52/18 33/60/33 25/51/25
f 27/53/27 35/62/35 34/63/34
f 27/53/27 34/63/34 26/54/26
f 28/55/28 36/64/36 35/62/35
f 28/55/28 35/62/35 27/53/27
f 29/56/29 37/65/37 36/64/36
f 29/56/29 36/64/36 28/55/28
f 30/57/30 38/66/38 37/65/37
f 30/57/30 37/65/37 29/56/29
f 31/58/31 39/67/39 38/66/38
f 31/58/31 38/66/38 30/57/30
f 32/59/32 40/68/40 39/67/39
f 32/59/32 39/67/39 31/58/31
f 33/60/33 41/69/41 40/68/40
f 33/60/33 40/68/40 32/59/32
f 26/61/26 34/70/34 41/69/41
f 26/61/26 41/69/41 33/60/33
f 35/62/35 43/71/43 42/72/42
f 35/62/35 42/72/42 34/63/34
f 36/64/36 44/73/44 43/71/43
f 36/64/36 43/71/43 35/62/35
f 37/65/37 45/74/45 44/73/44
f 37/65/37 44/73/44 36/64/36
f 38/66/38 46/75/46 45/74/45
f 38/66/38 45/74/45 37/65/37
f 39/67/39 47/76/47 46/75/46
f 39/67/39 46/75/46 38/66/38
f 40/68/40 48/77/48 47/76/47
f 40/68/40 47/76/47 39/67/39
f 41/69/41 49/78/49 48/77/48
f 41/69/41 48/77/48 40/68/40
f 34/70/34 42/79/42 49/78/49
f 34/70/34 49/78/49 41/69/41
f 43/71/43 51/19/51 50/18/50
f 43/71/43 50/18/50 42/72/42
f 44/73/44 52/21/52 51/19/51
f 44/73/44 51/19/51 43/71/43
f 45/74/45 53/23/53 52/21/52
f 45/74/45 52/21/52 44/73/44
f 46/75/46 54/25/54 53/23/53
f 46/75/46 53/23/53 45/74/45
f 47/76/47 55/27/55 54/25/54
f 47/76/47 54/25/54 46/75/46
f 48/77/48 56/29/56 55/27/55
f 48/77/48 55/27/55 47/76/47
f 49/78/49 57/31/57 56/29/56
f 49/78/49 56/29/56 48/77/48
f 42/79/42 50/33/50 57/31/57
f 42/79/42 57/31/57 49/78/49
# 112 elements

