# Created by Metasequoia

mtllib sphere16.mtl

v 0.000000 1.000000 0.000000
v 0.000000 0.707107 0.707107
v -0.707107 0.707107 -0.000000
v 0.000000 0.707107 -0.707107
v 0.707107 0.707107 0.000000
v 0.000000 -0.000000 1.000000
v -1.000000 -0.000000 -0.000000
v 0.000000 -0.000000 -1.000000
v 1.000000 -0.000000 0.000000
v 0.000000 -0.707107 0.707107
v -0.707107 -0.707107 -0.000000
v 0.000000 -0.707107 -0.707107
v 0.707107 -0.707107 0.000000
v 0.000000 -1.000000 0.000000
# 14 vertices

vt 0.12500 0.00000
vt 0.25000 0.25000
vt 0.00000 0.25000
vt 0.37500 0.00000
vt 0.50000 0.25000
vt 0.62500 0.00000
vt 0.75000 0.25000
vt 0.87500 0.00000
vt 1.00000 0.25000
vt 0.00000 0.75000
vt 0.25000 0.75000
vt 0.12500 1.00000
vt 0.50000 0.75000
vt 0.37500 1.00000
vt 0.75000 0.75000
vt 0.62500 1.00000
vt 1.00000 0.75000
vt 0.87500 1.00000
vt 0.25000 0.50000
vt 0.00000 0.50000
vt 0.50000 0.50000
vt 0.75000 0.50000
vt 1.00000 0.50000
# 23 texture vertices

vn -0.00000 1.00000 0.00000
vn -0.26763 0.79144 0.54954
vn -0.61450 0.67852 0.40250
vn -0.40250 0.67852 -0.61450
vn 0.61450 0.67852 -0.40250
vn -0.70376 0.09717 0.70376
vn -0.70376 -0.09717 0.70376
vn -0.70376 -0.09717 -0.70376
vn 0.70376 -0.09717 -0.70376
vn -0.40250 -0.67852 0.61450
vn -0.54954 -0.79144 0.26763
vn -0.26763 -0.79144 -0.54954
vn 0.54954 -0.79144 -0.26763
vn -0.00000 -1.00000 0.00000
vn -0.70376 0.09717 -0.70376
vn -0.67860 0.28108 -0.67860
vn 0.70376 0.09717 -0.70376
vn 0.67860 0.28108 -0.67860
vn 0.67860 0.28108 0.67860
vn 0.70376 -0.09717 0.70376
vn 0.70376 0.09717 0.70376
vn -0.67860 -0.28108 -0.67860
vn 0.67860 -0.28108 -0.67860
vn 0.67860 -0.28108 0.67860
# 24 normal vertices

usemtl default
f 1/1/1 3/2/3 2/3/2
f 1/4/1 4/5/4 3/2/3
f 1/6/1 5/7/5 4/5/4
f 1/8/1 2/9/2 5/7/5
f 10/10/10 11/11/11 14/12/14
f 11/11/11 12/13/12 14/14/14
f 12/13/12 13/15/13 14/16/14
f 13/15/13 10/17/10 14/18/14
f 3/2/3 7/19/7 6/20/6
f 3/2/3 6/20/6 2/3/2
f 4/5/4 8/21/8 7/19/15
f 4/5/4 7/19/15 3/2/16
f 5/7/5 9/22/9 8/21/17
f 5/7/5 8/21/17 4/5/18
f 2/9/19 6/23/20 9/22/21
f 2/9/19 9/22/21 5/7/19
f 7/19/7 11/11/11 10/10/10
f 7/19/7 10/10/10 6/20/6
f 8/21/8 12/13/12 11/11/22
f 8/21/8 11/11/22 7/19/15
f 9/22/9 13/15/13 12/13/23
f 9/22/9 12/13/23 8/21/17
f 6/23/20 10/17/24 13/15/24
f 6/23/20 13/15/24 9/22/21
# 24 elements

