# Created by Metasequoia

mtllib sphere100.mtl

v 0.000000 1.000000 0.000000
v 0.000000 0.951057 0.309017
v -0.181636 0.951057 0.250000
v -0.293893 0.951057 0.095491
v -0.293893 0.951057 -0.095492
v -0.181636 0.951057 -0.250000
v 0.000000 0.951057 -0.309017
v 0.181636 0.951057 -0.250000
v 0.293893 0.951057 -0.095492
v 0.293893 0.951057 0.095492
v 0.181636 0.951057 0.250000
v 0.000000 0.809017 0.587785
v -0.345491 0.809017 0.475528
v -0.559017 0.809017 0.181636
v -0.559017 0.809017 -0.181636
v -0.345491 0.809017 -0.475528
v 0.000000 0.809017 -0.587785
v 0.345492 0.809017 -0.475528
v 0.559017 0.809017 -0.181636
v 0.559017 0.809017 0.181636
v 0.345491 0.809017 0.475528
v 0.000000 0.587785 0.809017
v -0.475528 0.587785 0.654508
v -0.769421 0.587785 0.250000
v -0.769421 0.587785 -0.250000
v -0.475528 0.587785 -0.654509
v 0.000000 0.587785 -0.809017
v 0.475528 0.587785 -0.654508
v 0.769421 0.587785 -0.250000
v 0.769421 0.587785 0.250000
v 0.475528 0.587785 0.654509
v 0.000000 0.309017 0.951057
v -0.559017 0.309017 0.769421
v -0.904509 0.309017 0.293893
v -0.904509 0.309017 -0.293893
v -0.559017 0.309017 -0.769421
v 0.000000 0.309017 -0.951057
v 0.559017 0.309017 -0.769421
v 0.904508 0.309017 -0.293893
v 0.904508 0.309017 0.293893
v 0.559017 0.309017 0.769421
v 0.000000 -0.000000 1.000000
v -0.587785 -0.000000 0.809017
v -0.951057 -0.000000 0.309017
v -0.951056 -0.000000 -0.309017
v -0.587785 -0.000000 -0.809017
v 0.000000 -0.000000 -1.000000
v 0.587785 -0.000000 -0.809017
v 0.951056 -0.000000 -0.309017
v 0.951056 -0.000000 0.309017
v 0.587785 -0.000000 0.809017
v 0.000000 -0.309017 0.951056
v -0.559017 -0.309017 0.769421
v -0.904508 -0.309017 0.293893
v -0.904508 -0.309017 -0.293893
v -0.559017 -0.309017 -0.769421
v 0.000000 -0.309017 -0.951056
v 0.559017 -0.309017 -0.769421
v 0.904508 -0.309017 -0.293893
v 0.904508 -0.309017 0.293893
v 0.559017 -0.309017 0.769421
v 0.000000 -0.587785 0.809017
v -0.475528 -0.587785 0.654508
v -0.769421 -0.587785 0.250000
v -0.769421 -0.587785 -0.250000
v -0.475528 -0.587785 -0.654509
v 0.000000 -0.587785 -0.809017
v 0.475528 -0.587785 -0.654508
v 0.769421 -0.587785 -0.250000
v 0.769421 -0.587785 0.250000
v 0.475528 -0.587785 0.654509
v 0.000000 -0.809017 0.587785
v -0.345491 -0.809017 0.475528
v -0.559017 -0.809017 0.181636
v -0.559017 -0.809017 -0.181636
v -0.345491 -0.809017 -0.475528
v 0.000000 -0.809017 -0.587785
v 0.345491 -0.809017 -0.475528
v 0.559017 -0.809017 -0.181636
v 0.559017 -0.809017 0.181636
v 0.345491 -0.809017 0.475528
v 0.000000 -0.951057 0.309017
v -0.181636 -0.951057 0.250000
v -0.293892 -0.951057 0.095491
v -0.293892 -0.951057 -0.095491
v -0.181635 -0.951057 -0.250000
v 0.000000 -0.951057 -0.309017
v 0.181636 -0.951057 -0.250000
v 0.293892 -0.951057 -0.095491
v 0.293892 -0.951057 0.095491
v 0.181635 -0.951057 0.250000
v 0.000000 -1.000000 0.000000
# 92 vertices

vt 0.05000 0.00000
vt 0.10000 0.10000
vt 0.00000 0.10000
vt 0.15000 0.00000
vt 0.20000 0.10000
vt 0.25000 0.00000
vt 0.30000 0.10000
vt 0.35000 0.00000
vt 0.40000 0.10000
vt 0.45000 0.00000
vt 0.50000 0.10000
vt 0.55000 0.00000
vt 0.60000 0.10000
vt 0.65000 0.00000
vt 0.70000 0.10000
vt 0.75000 0.00000
vt 0.80000 0.10000
vt 0.85000 0.00000
vt 0.90000 0.10000
vt 0.95000 0.00000
vt 1.00000 0.10000
vt 0.00000 0.90000
vt 0.10000 0.90000
vt 0.05000 1.00000
vt 0.20000 0.90000
vt 0.15000 1.00000
vt 0.30000 0.90000
vt 0.25000 1.00000
vt 0.40000 0.90000
vt 0.35000 1.00000
vt 0.50000 0.90000
vt 0.45000 1.00000
vt 0.60000 0.90000
vt 0.55000 1.00000
vt 0.70000 0.90000
vt 0.65000 1.00000
vt 0.80000 0.90000
vt 0.75000 1.00000
vt 0.90000 0.90000
vt 0.85000 1.00000
vt 1.00000 0.90000
vt 0.95000 1.00000
vt 0.10000 0.20000
vt 0.00000 0.20000
vt 0.20000 0.20000
vt 0.30000 0.20000
vt 0.40000 0.20000
vt 0.50000 0.20000
vt 0.60000 0.20000
vt 0.70000 0.20000
vt 0.80000 0.20000
vt 0.90000 0.20000
vt 1.00000 0.20000
vt 0.10000 0.30000
vt 0.00000 0.30000
vt 0.20000 0.30000
vt 0.30000 0.30000
vt 0.40000 0.30000
vt 0.50000 0.30000
vt 0.60000 0.30000
vt 0.70000 0.30000
vt 0.80000 0.30000
vt 0.90000 0.30000
vt 1.00000 0.30000
vt 0.10000 0.40000
vt 0.00000 0.40000
vt 0.20000 0.40000
vt 0.30000 0.40000
vt 0.40000 0.40000
vt 0.50000 0.40000
vt 0.60000 0.40000
vt 0.70000 0.40000
vt 0.80000 0.40000
vt 0.90000 0.40000
vt 1.00000 0.40000
vt 0.10000 0.50000
vt 0.00000 0.50000
vt 0.20000 0.50000
vt 0.30000 0.50000
vt 0.40000 0.50000
vt 0.50000 0.50000
vt 0.60000 0.50000
vt 0.70000 0.50000
vt 0.80000 0.50000
vt 0.90000 0.50000
vt 1.00000 0.50000
vt 0.10000 0.60000
vt 0.00000 0.60000
vt 0.20000 0.60000
vt 0.30000 0.60000
vt 0.40000 0.60000
vt 0.50000 0.60000
vt 0.60000 0.60000
vt 0.70000 0.60000
vt 0.80000 0.60000
vt 0.90000 0.60000
vt 1.00000 0.60000
vt 0.10000 0.70000
vt 0.00000 0.70000
vt 0.20000 0.70000
vt 0.30000 0.70000
vt 0.40000 0.70000
vt 0.50000 0.70000
vt 0.60000 0.70000
vt 0.70000 0.70000
vt 0.80000 0.70000
vt 0.90000 0.70000
vt 1.00000 0.70000
vt 0.10000 0.80000
vt 0.00000 0.80000
vt 0.20000 0.80000
vt 0.30000 0.80000
vt 0.40000 0.80000
vt 0.50000 0.80000
vt 0.60000 0.80000
vt 0.70000 0.80000
vt 0.80000 0.80000
vt 0.90000 0.80000
vt 1.00000 0.80000
vt 0.10000 0.90000
vt 0.00000 0.90000
vt 0.20000 0.90000
vt 0.30000 0.90000
vt 0.40000 0.90000
vt 0.50000 0.90000
vt 0.60000 0.90000
vt 0.70000 0.90000
vt 0.80000 0.90000
vt 0.90000 0.90000
vt 1.00000 0.90000
# 130 texture vertices

vn -0.00000 1.00000 0.00000
vn 0.02973 0.94062 0.33815
vn -0.17471 0.94062 0.29104
vn -0.31241 0.94062 0.13277
vn -0.33078 0.94062 -0.07622
vn -0.22281 0.94062 -0.25609
vn -0.02973 0.94062 -0.33815
vn 0.17471 0.94062 -0.29104
vn 0.31241 0.94062 -0.13277
vn 0.33078 0.94062 0.07622
vn 0.22281 0.94062 0.25609
vn 0.01340 0.80964 0.58677
vn -0.33406 0.80964 0.48259
vn -0.55391 0.80964 0.19407
vn -0.56862 0.79603 -0.20737
vn -0.30528 0.82748 -0.47125
vn -0.01340 0.80964 -0.58677
vn 0.33406 0.80964 -0.48259
vn 0.55391 0.80964 -0.19407
vn 0.56220 0.80964 0.16858
vn 0.35574 0.80964 0.46683
vn -0.04672 0.61330 0.78846
vn -0.46747 0.58869 0.65948
vn -0.76582 0.58869 0.25876
vn -0.80278 0.56184 -0.19969
vn -0.50035 0.60631 -0.61810
vn -0.00945 0.58869 -0.80830
vn 0.46747 0.58869 -0.65948
vn 0.76582 0.58869 -0.25876
vn 0.77166 0.58869 0.24080
vn 0.45549 0.56994 0.68388
vn 0.04612 0.33074 0.94259
vn -0.55496 0.30967 0.77209
vn -0.90280 0.30967 0.29843
vn -0.90579 0.30967 -0.28921
vn -0.56281 0.30967 -0.76639
vn -0.00485 0.30967 -0.95083
vn 0.55496 0.30967 -0.77209
vn 0.90280 0.30967 -0.29843
vn 0.90579 0.30967 0.28921
vn 0.61545 0.27881 0.73721
vn -0.00000 -0.00000 1.00000
vn -0.58779 -0.00000 0.80902
vn -0.95106 -0.00000 0.30902
vn -0.95106 -0.00000 -0.30902
vn -0.58779 -0.00000 -0.80902
vn 0.00000 -0.00000 -1.00000
vn 0.58779 -0.00000 -0.80902
vn 0.95106 -0.00000 -0.30902
vn 0.95106 -0.00000 0.30902
vn 0.58779 -0.00000 0.80902
vn -0.00485 -0.30967 0.95083
vn -0.56281 -0.30967 0.76639
vn -0.90579 -0.30967 0.28921
vn -0.90280 -0.30967 -0.29843
vn -0.55496 -0.30967 -0.77209
vn 0.00485 -0.30967 -0.95083
vn 0.56281 -0.30967 -0.76639
vn 0.90579 -0.30967 -0.28921
vn 0.90279 -0.30967 0.29843
vn 0.55496 -0.30967 0.77209
vn -0.00945 -0.58869 0.80830
vn -0.48275 -0.58869 0.64838
vn -0.77166 -0.58869 0.24080
vn -0.76582 -0.58869 -0.25876
vn -0.46747 -0.58869 -0.65948
vn 0.00945 -0.58869 -0.80830
vn 0.48275 -0.58869 -0.64838
vn 0.77166 -0.58869 -0.24080
vn 0.76582 -0.58869 0.25876
vn 0.46747 -0.58869 0.65948
vn -0.01340 -0.80964 0.58677
vn -0.35574 -0.80964 0.46683
vn -0.56220 -0.80964 0.16858
vn -0.55391 -0.80964 -0.19407
vn -0.33406 -0.80964 -0.48259
vn 0.01340 -0.80964 -0.58677
vn 0.35574 -0.80964 -0.46683
vn 0.56220 -0.80964 -0.16858
vn 0.55391 -0.80964 0.19407
vn 0.33406 -0.80964 0.48259
vn -0.02973 -0.94062 0.33815
vn -0.22281 -0.94062 0.25609
vn -0.33078 -0.94062 0.07622
vn -0.31241 -0.94062 -0.13277
vn -0.17471 -0.94062 -0.29104
vn 0.02973 -0.94062 -0.33815
vn 0.22281 -0.94062 -0.25609
vn 0.33078 -0.94062 -0.07622
vn 0.31241 -0.94062 0.13277
vn 0.17471 -0.94062 0.29104
vn -0.00000 -1.00000 0.00000
# 92 normal vertices

usemtl default
f 1/1/1 3/2/3 2/3/2
f 1/4/1 4/5/4 3/2/3
f 1/6/1 5/7/5 4/5/4
f 1/8/1 6/9/6 5/7/5
f 1/10/1 7/11/7 6/9/6
f 1/12/1 8/13/8 7/11/7
f 1/14/1 9/15/9 8/13/8
f 1/16/1 10/17/10 9/15/9
f 1/18/1 11/19/11 10/17/10
f 1/20/1 2/21/2 11/19/11
f 82/22/82 83/23/83 92/24/92
f 83/23/83 84/25/84 92/26/92
f 84/25/84 85/27/85 92/28/92
f 85/27/85 86/29/86 92/30/92
f 86/29/86 87/31/87 92/32/92
f 87/31/87 88/33/88 92/34/92
f 88/33/88 89/35/89 92/36/92
f 89/35/89 90/37/90 92/38/92
f 90/37/90 91/39/91 92/40/92
f 91/39/91 82/41/82 92/42/92
f 3/2/3 13/43/13 12/44/12
f 3/2/3 12/44/12 2/3/2
f 4/5/4 14/45/14 13/43/13
f 4/5/4 13/43/13 3/2/3
f 5/7/5 15/46/15 14/45/14
f 5/7/5 14/45/14 4/5/4
f 6/9/6 16/47/16 15/46/15
f 6/9/6 15/46/15 5/7/5
f 7/11/7 17/48/17 16/47/16
f 7/11/7 16/47/16 6/9/6
f 8/13/8 18/49/18 17/48/17
f 8/13/8 17/48/17 7/11/7
f 9/15/9 19/50/19 18/49/18
f 9/15/9 18/49/18 8/13/8
f 10/17/10 20/51/20 19/50/19
f 10/17/10 19/50/19 9/15/9
f 11/19/11 21/52/21 20/51/20
f 11/19/11 20/51/20 10/17/10
f 2/21/2 12/53/12 21/52/21
f 2/21/2 21/52/21 11/19/11
f 13/43/13 23/54/23 22/55/22
f 13/43/13 22/55/22 12/44/12
f 14/45/14 24/56/24 23/54/23
f 14/45/14 23/54/23 13/43/13
f 15/46/15 25/57/25 24/56/24
f 15/46/15 24/56/24 14/45/14
f 15/46/15 16/47/16 26/58/26
f 15/46/15 26/58/26 25/57/25
f 17/48/17 27/59/27 26/58/26
f 17/48/17 26/58/26 16/47/16
f 18/49/18 28/60/28 27/59/27
f 18/49/18 27/59/27 17/48/17
f 19/50/19 29/61/29 28/60/28
f 19/50/19 28/60/28 18/49/18
f 20/51/20 30/62/30 29/61/29
f 20/51/20 29/61/29 19/50/19
f 21/52/21 31/63/31 30/62/30
f 21/52/21 30/62/30 20/51/20
f 12/53/12 22/64/22 31/63/31
f 12/53/12 31/63/31 21/52/21
f 23/54/23 33/65/33 32/66/32
f 23/54/23 32/66/32 22/55/22
f 24/56/24 34/67/34 33/65/33
f 24/56/24 33/65/33 23/54/23
f 25/57/25 35/68/35 34/67/34
f 25/57/25 34/67/34 24/56/24
f 26/58/26 36/69/36 35/68/35
f 26/58/26 35/68/35 25/57/25
f 27/59/27 37/70/37 36/69/36
f 27/59/27 36/69/36 26/58/26
f 28/60/28 38/71/38 37/70/37
f 28/60/28 37/70/37 27/59/27
f 29/61/29 39/72/39 38/71/38
f 29/61/29 38/71/38 28/60/28
f 30/62/30 40/73/40 39/72/39
f 30/62/30 39/72/39 29/61/29
f 31/63/31 41/74/41 40/73/40
f 31/63/31 40/73/40 30/62/30
f 31/63/31 22/64/22 32/75/32
f 31/63/31 32/75/32 41/74/41
f 33/65/33 43/76/43 42/77/42
f 33/65/33 42/77/42 32/66/32
f 34/67/34 44/78/44 43/76/43
f 34/67/34 43/76/43 33/65/33
f 35/68/35 45/79/45 44/78/44
f 35/68/35 44/78/44 34/67/34
f 36/69/36 46/80/46 45/79/45
f 36/69/36 45/79/45 35/68/35
f 37/70/37 47/81/47 46/80/46
f 37/70/37 46/80/46 36/69/36
f 38/71/38 48/82/48 47/81/47
f 38/71/38 47/81/47 37/70/37
f 39/72/39 49/83/49 48/82/48
f 39/72/39 48/82/48 38/71/38
f 40/73/40 50/84/50 49/83/49
f 40/73/40 49/83/49 39/72/39
f 41/74/41 51/85/51 50/84/50
f 41/74/41 50/84/50 40/73/40
f 32/75/32 42/86/42 51/85/51
f 32/75/32 51/85/51 41/74/41
f 43/76/43 53/87/53 52/88/52
f 43/76/43 52/88/52 42/77/42
f 44/78/44 54/89/54 53/87/53
f 44/78/44 53/87/53 43/76/43
f 45/79/45 55/90/55 54/89/54
f 45/79/45 54/89/54 44/78/44
f 46/80/46 56/91/56 55/90/55
f 46/80/46 55/90/55 45/79/45
f 47/81/47 57/92/57 56/91/56
f 47/81/47 56/91/56 46/80/46
f 48/82/48 58/93/58 57/92/57
f 48/82/48 57/92/57 47/81/47
f 49/83/49 59/94/59 58/93/58
f 49/83/49 58/93/58 48/82/48
f 50/84/50 60/95/60 59/94/59
f 50/84/50 59/94/59 49/83/49
f 51/85/51 61/96/61 60/95/60
f 51/85/51 60/95/60 50/84/50
f 42/86/42 52/97/52 61/96/61
f 42/86/42 61/96/61 51/85/51
f 53/87/53 63/98/63 62/99/62
f 53/87/53 62/99/62 52/88/52
f 54/89/54 64/100/64 63/98/63
f 54/89/54 63/98/63 53/87/53
f 55/90/55 65/101/65 64/100/64
f 55/90/55 64/100/64 54/89/54
f 56/91/56 66/102/66 65/101/65
f 56/91/56 65/101/65 55/90/55
f 57/92/57 67/103/67 66/102/66
f 57/92/57 66/102/66 56/91/56
f 58/93/58 68/104/68 67/103/67
f 58/93/58 67/103/67 57/92/57
f 59/94/59 69/105/69 68/104/68
f 59/94/59 68/104/68 58/93/58
f 60/95/60 70/106/70 69/105/69
f 60/95/60 69/105/69 59/94/59
f 61/96/61 71/107/71 70/106/70
f 61/96/61 70/106/70 60/95/60
f 52/97/52 62/108/62 71/107/71
f 52/97/52 71/107/71 61/96/61
f 63/98/63 73/109/73 72/110/72
f 63/98/63 72/110/72 62/99/62
f 64/100/64 74/111/74 73/109/73
f 64/100/64 73/109/73 63/98/63
f 65/101/65 75/112/75 74/111/74
f 65/101/65 74/111/74 64/100/64
f 66/102/66 76/113/76 75/112/75
f 66/102/66 75/112/75 65/101/65
f 67/103/67 77/114/77 76/113/76
f 67/103/67 76/113/76 66/102/66
f 68/104/68 78/115/78 77/114/77
f 68/104/68 77/114/77 67/103/67
f 69/105/69 79/116/79 78/115/78
f 69/105/69 78/115/78 68/104/68
f 70/106/70 80/117/80 79/116/79
f 70/106/70 79/116/79 69/105/69
f 71/107/71 81/118/81 80/117/80
f 71/107/71 80/117/80 70/106/70
f 62/108/62 72/119/72 81/118/81
f 62/108/62 81/118/81 71/107/71
f 73/109/73 83/120/83 82/121/82
f 73/109/73 82/121/82 72/110/72
f 74/111/74 84/122/84 83/120/83
f 74/111/74 83/120/83 73/109/73
f 75/112/75 85/123/85 84/122/84
f 75/112/75 84/122/84 74/111/74
f 76/113/76 86/124/86 85/123/85
f 76/113/76 85/123/85 75/112/75
f 77/114/77 87/125/87 86/124/86
f 77/114/77 86/124/86 76/113/76
f 78/115/78 88/126/88 87/125/87
f 78/115/78 87/125/87 77/114/77
f 79/116/79 89/127/89 88/126/88
f 79/116/79 88/126/88 78/115/78
f 80/117/80 90/128/90 89/127/89
f 80/117/80 89/127/89 79/116/79
f 81/118/81 91/129/91 90/128/90
f 81/118/81 90/128/90 80/117/80
f 72/119/72 82/130/82 91/129/91
f 72/119/72 91/129/91 81/118/81
# 180 elements

